<?xml version="1.0" encoding="utf-8"?>
<!-- Generator: Adobe Illustrator 15.0.0, SVG Export Plug-In . SVG Version: 6.00 Build 0)  -->
<!DOCTYPE svg PUBLIC "-//W3C//DTD SVG 1.1//EN" "http://www.w3.org/Graphics/SVG/1.1/DTD/svg11.dtd">
<svg version="1.1" id="Ebene_1" xmlns="http://www.w3.org/2000/svg" xmlns:xlink="http://www.w3.org/1999/xlink" x="0px" y="0px"
	 width="16px" height="16px" viewBox="0 0 16 16" enable-background="new 0 0 16 16" xml:space="preserve">
<g>
	<path d="M8,2.796l1.084,3.573l0.155,0.569h0.619h3.665l-2.942,2.278l-0.464,0.362l0.155,0.57l1.135,3.676l-2.89-2.227L8,11.236
		l-0.516,0.362l-2.89,2.227l1.135-3.676l0.155-0.57L5.42,9.217L2.426,6.938h3.665H6.71l0.155-0.569L8,2.796 M8,0l-1.91,6.11H0
		l4.955,3.78L3.045,16L8,12.22L12.955,16l-1.91-6.11L16,6.11H9.91L8,0L8,0z"/>
</g>
</svg>
