<?xml version="1.0" encoding="utf-8"?>
<!-- Generator: Adobe Illustrator 15.0.0, SVG Export Plug-In . SVG Version: 6.00 Build 0)  -->
<!DOCTYPE svg PUBLIC "-//W3C//DTD SVG 1.1//EN" "http://www.w3.org/Graphics/SVG/1.1/DTD/svg11.dtd">
<svg version="1.1" id="Layer_1" xmlns="http://www.w3.org/2000/svg" xmlns:xlink="http://www.w3.org/1999/xlink" x="0px" y="0px"
	 width="16px" height="16px" viewBox="0 0 16 16" enable-background="new 0 0 16 16" xml:space="preserve">
<g>
	<defs>
		<rect id="SVGID_1_" width="16" height="16"/>
	</defs>
	<clipPath id="SVGID_2_">
		<use xlink:href="#SVGID_1_"  overflow="visible"/>
	</clipPath>
	<path clip-path="url(#SVGID_2_)" d="M8,0.787c3.977,0,7.213,3.236,7.213,7.213S11.977,15.213,8,15.213S0.787,11.977,0.787,8
		S4.023,0.787,8,0.787 M8,0C3.582,0,0,3.582,0,8s3.582,8,8,8s8-3.582,8-8S12.418,0,8,0"/>
	<path clip-path="url(#SVGID_2_)" d="M7.476,10.216C7.472,10.078,7.47,9.974,7.47,9.905c0-0.407,0.057-0.759,0.172-1.055
		c0.085-0.223,0.221-0.448,0.409-0.674C8.19,8.01,8.438,7.77,8.798,7.452c0.359-0.316,0.593-0.569,0.7-0.757
		C9.605,6.506,9.659,6.3,9.659,6.078c0-0.403-0.157-0.758-0.473-1.063C8.872,4.708,8.486,4.556,8.028,4.556
		c-0.442,0-0.811,0.139-1.106,0.415S6.432,5.68,6.34,6.268L5.274,6.141C5.37,5.354,5.655,4.75,6.13,4.332
		c0.474-0.419,1.102-0.628,1.882-0.628c0.826,0,1.484,0.225,1.976,0.674c0.492,0.45,0.738,0.993,0.738,1.631
		c0,0.369-0.086,0.709-0.259,1.021C10.294,7.34,9.956,7.719,9.452,8.165c-0.338,0.3-0.559,0.521-0.663,0.663
		c-0.104,0.143-0.181,0.306-0.23,0.49c-0.05,0.185-0.079,0.484-0.086,0.899L7.476,10.216z M7.412,11.115h1.182v1.182H7.412V11.115z"
		/>
</g>
</svg>
