<?xml version="1.0" encoding="utf-8"?>
<!-- Generator: Adobe Illustrator 15.0.0, SVG Export Plug-In . SVG Version: 6.00 Build 0)  -->
<!DOCTYPE svg PUBLIC "-//W3C//DTD SVG 1.1//EN" "http://www.w3.org/Graphics/SVG/1.1/DTD/svg11.dtd">
<svg version="1.1" id="Layer_1" xmlns="http://www.w3.org/2000/svg" xmlns:xlink="http://www.w3.org/1999/xlink" x="0px" y="0px"
	 width="12px" height="16px" viewBox="0 0 12 16" enable-background="new 0 0 12 16" xml:space="preserve">
<g>
	<defs>
		<path id="SVGID_1_" d="M0,3.25h-0.75V4v12v0.75H0h12h0.75V16V4V3.25H12H0z M0,4.75h12L11.25,4v12L12,15.25H0L0.75,16V4L0,4.75z
			 M-20.75-16.75h53.5v53.5h-53.5V-16.75z"/>
	</defs>
	<clipPath id="SVGID_2_">
		<use xlink:href="#SVGID_1_"  overflow="visible"/>
	</clipPath>
	<g clip-path="url(#SVGID_2_)">
		<defs>
			<rect id="SVGID_3_" y="4" width="12" height="12"/>
		</defs>
		<clipPath id="SVGID_4_">
			<use xlink:href="#SVGID_3_"  overflow="visible"/>
		</clipPath>
		<g clip-path="url(#SVGID_4_)">
			<defs>
				<rect id="SVGID_5_" x="-2" width="16" height="16"/>
			</defs>
			<clipPath id="SVGID_6_">
				<use xlink:href="#SVGID_5_"  overflow="visible"/>
			</clipPath>
			<rect y="4" clip-path="url(#SVGID_6_)" width="12" height="12"/>
		</g>
	</g>
</g>
<g>
	<defs>
		<rect id="SVGID_7_" y="4" width="12" height="12"/>
	</defs>
	<clipPath id="SVGID_8_">
		<use xlink:href="#SVGID_7_"  overflow="visible"/>
	</clipPath>
	<g clip-path="url(#SVGID_8_)">
		<defs>
			<rect id="SVGID_9_" x="-2" width="16" height="16"/>
		</defs>
		<clipPath id="SVGID_10_">
			<use xlink:href="#SVGID_9_"  overflow="visible"/>
		</clipPath>
		
			<rect y="4" clip-path="url(#SVGID_10_)" fill="none" stroke="#000000" stroke-width="3" stroke-miterlimit="10" width="12" height="12"/>
	</g>
</g>
<g>
	<defs>
		<path id="SVGID_11_" d="M3,3c0-1.657,1.347-3,3-3c1.657,0,3,1.349,3,3V7c0,1.657-1.347,3-3,3c-1.657,0-3-1.349-3-3V3z"/>
	</defs>
	<clipPath id="SVGID_12_">
		<use xlink:href="#SVGID_11_"  overflow="visible"/>
	</clipPath>
	<g clip-path="url(#SVGID_12_)">
		<defs>
			<rect id="SVGID_13_" x="-2" width="16" height="16"/>
		</defs>
		<clipPath id="SVGID_14_">
			<use xlink:href="#SVGID_13_"  overflow="visible"/>
		</clipPath>
		<path clip-path="url(#SVGID_14_)" fill="none" stroke="#000000" stroke-width="2" stroke-miterlimit="10" d="M3,3
			c0-1.657,1.347-3,3-3c1.657,0,3,1.349,3,3V7c0,1.657-1.347,3-3,3c-1.657,0-3-1.349-3-3V3z"/>
	</g>
</g>
</svg>
