<?xml version="1.0" encoding="utf-8"?>
<!-- Generator: Adobe Illustrator 15.0.0, SVG Export Plug-In . SVG Version: 6.00 Build 0)  -->
<!DOCTYPE svg PUBLIC "-//W3C//DTD SVG 1.1//EN" "http://www.w3.org/Graphics/SVG/1.1/DTD/svg11.dtd">
<svg version="1.1" id="Layer_1" xmlns="http://www.w3.org/2000/svg" xmlns:xlink="http://www.w3.org/1999/xlink" x="0px" y="0px"
	 width="128px" height="15px" viewBox="0 0 128 15" enable-background="new 0 0 128 15" xml:space="preserve">
<g>
	<g>
		<path d="M121.609,2.586h0.088c0.2,0.948,0.287,1.379,0.491,2.068l1.178,4.656h-3.454l1.18-4.656
			C121.265,3.966,121.38,3.534,121.609,2.586 M124.747,14.799H128l-4.086-14.513h-4.434l-4.116,14.513h3.08l0.92-3.247h4.462
			L124.747,14.799z M108.312,15c1.785,0,3.512-0.43,4.636-0.89V6.84h-5.009v2.327h2.044v3.246c-0.375,0.231-1.009,0.375-1.698,0.375
			c-2.131,0-2.793-1.063-2.793-4.137v-1.87c0-3.046,0.632-4.54,2.591-4.54c1.352,0,1.815,0.919,1.845,1.897h3.079
			C112.974,1.581,111.134,0,108.082,0c-4.262,0-5.814,2.471-5.814,6.467v2.127C102.238,12.932,103.708,15,108.312,15 M93.892,2.586
			h0.088c0.201,0.948,0.288,1.379,0.488,2.068l1.183,4.656h-3.456l1.179-4.656C93.547,3.966,93.662,3.534,93.892,2.586
			 M97.029,14.799h3.251L96.196,0.286h-4.435l-4.114,14.513h3.079l0.921-3.247h4.461L97.029,14.799z M81.485,14.799h3.081V0.286
			h-3.081V14.799z M73.023,15c3.424,0,5.094-1.582,5.18-4.538h-3.107c-0.058,1.436-0.52,2.326-1.986,2.326
			c-1.668,0-2.301-1.177-2.301-4.194V6.467c0-3.047,0.633-4.195,2.301-4.195c1.556,0,1.814,1.035,1.871,2.127h3.107
			c-0.029-2.529-1.468-4.34-5.064-4.34c-4.002,0-5.468,2.501-5.468,6.408v2.127C67.556,12.53,69.021,15,73.023,15 M52.184,14.799
			h2.735v-8.42c0-1.177-0.059-2.614-0.117-3.793h0.089c0.431,1.494,0.661,2.27,1.064,3.39l3.194,8.823h4.491V0.286h-2.735v8.078
			c0,1.061,0.03,2.471,0.058,3.82h-0.086c-0.23-1.007-0.434-2.013-1.038-3.65l-2.992-8.248h-4.69v14.513H52.184z M39.633,14.799
			h8.376v-2.327h-5.295V8.447h4.805V6.093h-4.805V2.586h5.095V0.258h-8.176V14.799z M28.38,14.799h8.059v-2.327H31.46V0.286h-3.08
			V14.799z M18.824,2.586h0.087c0.2,0.948,0.288,1.379,0.489,2.068l1.18,4.656h-3.453l1.181-4.656
			C18.479,3.966,18.595,3.534,18.824,2.586 M21.962,14.799h3.253L21.127,0.286h-4.432l-4.117,14.513h3.079l0.922-3.247h4.462
			L21.962,14.799z M3.108,12.587V8.364H4.98c1.583,0,2.33,0.718,2.33,2.124c0,1.55-0.978,2.128-2.388,2.128H3.108V12.587z
			 M3.108,6.15V2.5h1.929c1.409,0,2.014,0.631,2.014,1.811c0,1.179-0.688,1.839-1.985,1.839H3.108z M0.028,14.799h5.439
			c3.051,0,4.922-1.094,4.922-4.109c0-1.926-1.122-3.246-3.195-3.449V7.156c1.841-0.316,2.936-1.322,2.936-3.247
			c0-2.501-1.439-3.621-4.518-3.621H0v14.513h0.028V14.799z"/>
	</g>
</g>
</svg>
