<svg width="17.227mm" height="16.315mm" version="1.1" viewBox="0 0 17.227 16.315" xmlns="http://www.w3.org/2000/svg">
 <g transform="translate(-29.797 -45.414)">
  <g transform="matrix(.26458 0 0 .28332 0 -3.2061)" aria-label="WUNDENCIAGA">
   <path d="m112.62 171.61h7.207l5.0391 21.191 5-21.191h7.2461l5 21.191 5.0391-21.191h7.1484l-6.875 29.16h-8.6719l-5.293-22.168-5.2344 22.168h-8.6719z" style="font-feature-settings:normal;font-variant-caps:normal;font-variant-ligatures:normal;font-variant-numeric:normal"/>
   <path d="m152.59 184.58h7.5195v17.48q0 3.6133 1.1719 5.1758 1.1914 1.543 3.8672 1.543 2.6953 0 3.8672-1.543 1.1914-1.5625 1.1914-5.1758v-17.48h7.5195v17.48q0 6.1914-3.1055 9.2188t-9.4727 3.0273q-6.3476 0-9.4531-3.0273t-3.1055-9.2188z" style="font-feature-settings:normal;font-variant-caps:normal;font-variant-ligatures:normal;font-variant-numeric:normal"/>
   <path d="m148.99 223.88h-11.758l-1.8555 5.3125h-7.5586l10.801-29.16h8.9648l10.801 29.16h-7.5586zm-9.8828-5.4102h7.9883l-3.9844-11.602z" style="font-feature-settings:normal;font-variant-caps:normal;font-variant-ligatures:normal;font-variant-numeric:normal"/>
  </g>
 </g>
</svg>
