<svg width="96.913mm" height="8.5716mm" version="1.1" viewBox="0 0 96.913 8.5716" xmlns="http://www.w3.org/2000/svg">
 <g transform="translate(-29.797 -45.265)">
  <g transform="matrix(.26458 0 0 .28332 0 -3.2061)" aria-label="WUNDENCIAGA">
   <path d="m112.62 171.61h7.207l5.0391 21.191 5-21.191h7.2461l5 21.191 5.0391-21.191h7.1484l-6.875 29.16h-8.6719l-5.293-22.168-5.2344 22.168h-8.6719z" style="font-feature-settings:normal;font-variant-caps:normal;font-variant-ligatures:normal;font-variant-numeric:normal"/>
   <path d="m161.69 171.61h7.5195v17.48q0 3.6133 1.1719 5.1758 1.1914 1.543 3.8672 1.543 2.6953 0 3.8672-1.543 1.1914-1.5625 1.1914-5.1758v-17.48h7.5195v17.48q0 6.1914-3.1055 9.2188t-9.4727 3.0273q-6.3476 0-9.4531-3.0273t-3.1055-9.2188z" style="font-feature-settings:normal;font-variant-caps:normal;font-variant-ligatures:normal;font-variant-numeric:normal"/>
   <path d="m196.63 171.61h8.3984l10.605 20v-20h7.1289v29.16h-8.3984l-10.605-20v20h-7.1289z" style="font-feature-settings:normal;font-variant-caps:normal;font-variant-ligatures:normal;font-variant-numeric:normal"/>
   <path d="m240.11 177.29v17.793h2.6953q4.6094 0 7.0312-2.2852 2.4414-2.2852 2.4414-6.6406 0-4.3359-2.4219-6.6016-2.4219-2.2656-7.0508-2.2656zm-7.5195-5.6836h7.9297q6.6406 0 9.8828 0.95703 3.2617 0.9375 5.5859 3.2031 2.0508 1.9726 3.0469 4.5508 0.99609 2.5781 0.99609 5.8398 0 3.3008-0.99609 5.8984-0.9961 2.5781-3.0469 4.5508-2.3438 2.2656-5.625 3.2227-3.2812 0.9375-9.8438 0.9375h-7.9297z" style="font-feature-settings:normal;font-variant-caps:normal;font-variant-ligatures:normal;font-variant-numeric:normal"/>
   <path d="m268.24 171.61h20.293v5.6836h-12.773v5.4297h12.012v5.6836h-12.012v6.6797h13.203v5.6836h-20.723z" style="font-feature-settings:normal;font-variant-caps:normal;font-variant-ligatures:normal;font-variant-numeric:normal"/>
   <path d="m298.03 171.61h8.3984l10.605 20v-20h7.1289v29.16h-8.3984l-10.605-20v20h-7.1289z" style="font-feature-settings:normal;font-variant-caps:normal;font-variant-ligatures:normal;font-variant-numeric:normal"/>
   <path d="m357.11 199.17q-2.0703 1.0742-4.3164 1.6211-2.2461 0.54687-4.6875 0.54687-7.2852 0-11.543-4.0625-4.2578-4.082-4.2578-11.055 0-6.9922 4.2578-11.055 4.2578-4.082 11.543-4.082 2.4414 0 4.6875 0.54687 2.2461 0.54688 4.3164 1.6211v6.0352q-2.0898-1.4258-4.1211-2.0898t-4.2774-0.66406q-4.0234 0-6.3281 2.5781-2.3047 2.5781-2.3047 7.1094 0 4.5117 2.3047 7.0898 2.3047 2.5781 6.3281 2.5781 2.2461 0 4.2774-0.66407 2.0312-0.66406 4.1211-2.0898z" style="font-feature-settings:normal;font-variant-caps:normal;font-variant-ligatures:normal;font-variant-numeric:normal"/>
   <path d="m365.81 171.61h7.5195v29.16h-7.5195z" style="font-feature-settings:normal;font-variant-caps:normal;font-variant-ligatures:normal;font-variant-numeric:normal"/>
   <path d="m400.87 195.46h-11.758l-1.8555 5.3125h-7.5586l10.801-29.16h8.9648l10.801 29.16h-7.5586zm-9.8828-5.4102h7.9883l-3.9844-11.602z" style="font-feature-settings:normal;font-variant-caps:normal;font-variant-ligatures:normal;font-variant-numeric:normal"/>
   <path d="m442.77 198.6q-2.8125 1.3672-5.8398 2.0508-3.0274 0.68359-6.25 0.68359-7.2852 0-11.543-4.0625-4.2578-4.082-4.2578-11.055 0-7.0508 4.3359-11.094 4.3359-4.043 11.875-4.043 2.9102 0 5.5664 0.54687 2.6758 0.54688 5.0391 1.6211v6.0352q-2.4414-1.3867-4.8633-2.0703-2.4023-0.68359-4.8242-0.68359-4.4922 0-6.9336 2.5195-2.4219 2.5-2.4219 7.168 0 4.6289 2.3438 7.1484 2.3438 2.5195 6.6602 2.5195 1.1719 0 2.168-0.13672 1.0156-0.15625 1.8164-0.46875v-5.6641h-4.5898v-5.0391h11.719z" style="font-feature-settings:normal;font-variant-caps:normal;font-variant-ligatures:normal;font-variant-numeric:normal"/>
   <path d="m469.51 195.46h-11.758l-1.8555 5.3125h-7.5586l10.801-29.16h8.9648l10.801 29.16h-7.5586zm-9.8828-5.4102h7.9883l-3.9844-11.602z" style="font-feature-settings:normal;font-variant-caps:normal;font-variant-ligatures:normal;font-variant-numeric:normal"/>
  </g>
 </g>
</svg>
